2.5Hzlow3min_grf.mot
version=1
nRows=27
nColumns 19
inDegrees=yes
endheader
time	1_ground_force_vx	1_ground_force_vy	1_ground_force_vz	1_ground_force_px	1_ground_force_py	1_ground_force_pz	1_ground_torque_x	1_ground_torque_y	1_ground_torque_z	2_ground_force_vx	2_ground_force_vy	2_ground_force_vz	2_ground_force_px	2_ground_force_py	2_ground_force_pz	2_ground_torque_x	2_ground_torque_y	2_ground_torque_z
            3.751500	            0.091425	            0.180677	           -0.091166	           -0.233013	            0.005581	           -0.255695	            0.022735	           -0.101876	            0.059804	           -0.326038	           -0.552960	           -0.189544	           -0.232311	            0.006130	           -0.833667	           -0.169049	           -0.019112	           -0.113097
            3.752000	            0.366321	           -0.179408	           -0.185107	           -0.233013	            0.005581	           -0.255695	            0.064534	           -0.046445	            0.109275	            0.046788	            0.000671	           -0.140804	           -0.232311	            0.006130	           -0.833667	           -0.075021	           -0.037948	           -0.037803
            3.752500	            0.503461	           -0.539127	           -0.370418	           -0.233013	            0.005581	           -0.255695	            0.091185	           -0.036818	            0.039935	            0.234126	            0.001850	           -0.281668	           -0.232311	            0.006130	           -0.833667	           -0.056288	           -0.019109	           -0.000043
            3.753000	            0.457780	           -0.178997	           -0.277046	           -0.233013	            0.005581	           -0.255695	            0.086981	            0.018705	            0.019418	            0.143852	           -0.920067	           -0.050273	           -0.232311	            0.006130	           -0.833667	           -0.131489	           -0.000542	            0.018906
            3.753500	            0.412162	            1.082067	           -0.088098	           -0.233013	            0.005581	           -0.255695	            0.040570	            0.000597	           -0.076535	            0.046747	            0.001006	           -0.234660	           -0.232311	            0.006130	           -0.833667	           -0.074987	           -0.047400	           -0.037837
            3.754000	            0.366579	            0.901399	            0.002955	           -0.233013	            0.005581	           -0.255695	            0.074414	           -0.036549	           -0.041130	           -0.090480	           -0.920243	           -0.237886	           -0.232311	            0.006130	           -0.833667	           -0.131547	           -0.000071	           -0.113045
            3.754500	            0.366582	           -0.360067	           -0.094168	           -0.233013	            0.005581	           -0.255695	            0.023102	           -0.046289	            0.071789	            0.189873	           -0.734410	           -0.425061	           -0.232311	            0.006130	           -0.833667	           -0.093917	           -0.009590	           -0.056544
            3.755000	            0.228367	            0.902552	           -0.271840	           -0.233013	            0.005581	           -0.255695	            0.048693	           -0.101492	           -0.009613	           -0.188188	            0.184476	           -0.280832	           -0.232311	            0.006130	           -0.833667	           -0.075006	           -0.028898	            0.075332
            3.755500	            0.503946	            0.541288	           -0.090644	           -0.233013	            0.005581	           -0.255695	            0.078615	           -0.018082	           -0.016386	            0.001932	           -0.551943	           -0.142755	           -0.232311	            0.006130	           -0.833667	           -0.131454	           -0.019179	           -0.056562
            3.756000	            0.640744	            0.182159	           -0.413523	           -0.233013	            0.005581	           -0.255695	            0.092639	           -0.008945	            0.027091	           -0.046226	           -0.183983	           -0.094493	           -0.232311	            0.006130	           -0.833667	           -0.112756	            0.018297	            0.056666
            3.756500	            0.503572	            0.722143	           -0.227439	           -0.233013	            0.005581	           -0.255695	            0.009556	           -0.018584	            0.096565	           -0.046185	           -0.184317	           -0.000637	           -0.232311	            0.006130	           -0.833667	           -0.168992	           -0.019583	            0.018855
            3.757000	            0.411580	           -0.719017	           -0.462675	           -0.233013	            0.005581	           -0.255695	            0.020016	           -0.018229	           -0.001308	            0.324647	            0.921758	            0.050074	           -0.232311	            0.006130	           -0.833667	           -0.112915	            0.037942	           -0.150619
            3.757500	            0.458217	            0.541082	           -0.044675	           -0.233013	            0.005581	           -0.255695	            0.170570	           -0.064381	            0.000030	           -0.188188	            0.184476	           -0.280832	           -0.232311	            0.006130	           -0.833667	           -0.018837	            0.018703	            0.037776
            3.758000	            0.091800	           -0.000179	            0.045628	           -0.233013	            0.005581	           -0.255695	            0.035755	           -0.092625	            0.059818	           -0.188249	            0.184978	           -0.421616	           -0.232311	            0.006130	           -0.833667	           -0.131437	           -0.019313	           -0.018862
            3.758500	            0.091767	            0.180087	            0.046401	           -0.233013	            0.005581	           -0.255695	            0.148080	           -0.064551	           -0.015539	            0.185968	            0.369810	           -0.233406	           -0.232311	            0.006130	           -0.833667	           -0.131395	           -0.028833	           -0.000045
            3.759000	            0.228646	            0.001027	           -0.229848	           -0.233013	            0.005581	           -0.255695	            0.084659	           -0.017970	           -0.084504	            0.143811	           -0.919732	           -0.144129	           -0.232311	            0.006130	           -0.833667	           -0.150206	           -0.019515	            0.018847
            3.759500	            0.366498	            0.721330	           -0.043674	           -0.233013	            0.005581	           -0.255695	            0.132983	           -0.009131	            0.034041	            0.237531	           -0.919561	           -0.097241	           -0.232311	            0.006130	           -0.833667	           -0.018853	            0.009654	           -0.075359
            3.760000	            0.504177	           -0.720572	           -0.096055	           -0.233013	            0.005581	           -0.255695	            0.098198	           -0.018078	           -0.016390	            0.094967	           -0.367456	           -0.142138	           -0.232311	            0.006130	           -0.833667	           -0.075337	            0.047194	           -0.056350
            3.760500	            0.504240	            0.180363	           -0.000479	           -0.233013	            0.005581	           -0.255695	            0.074839	            0.000569	           -0.053880	            0.050070	           -0.919736	           -0.237946	           -0.232311	            0.006130	           -0.833667	           -0.075209	            0.009450	           -0.075335
            3.761000	            0.320835	            0.360593	            0.000749	           -0.233013	            0.005581	           -0.255695	            0.074851	           -0.036731	           -0.005471	            0.046124	            0.184820	           -0.140147	           -0.232311	            0.006130	           -0.833667	           -0.093995	            0.018566	            0.000107
            3.761500	            0.045924	            0.180078	            0.046515	           -0.233013	            0.005581	           -0.255695	            0.185428	           -0.036512	           -0.092659	            0.094865	           -0.366619	           -0.376779	           -0.232311	            0.006130	           -0.833667	           -0.056431	            0.009585	           -0.094193
            3.762000	            0.137757	           -0.000367	            0.091370	           -0.233013	            0.005581	           -0.255695	            0.014655	           -0.064231	           -0.088438	            0.141132	           -0.182971	           -0.188429	           -0.232311	            0.006130	           -0.833667	           -0.093900	           -0.018908	           -0.094279
            3.762500	            0.091653	            0.180283	            0.000545	           -0.233013	            0.005581	           -0.255695	            0.056263	           -0.037001	            0.022403	            0.048700	           -0.551104	           -0.330488	           -0.232311	            0.006130	           -0.833667	            0.000189	           -0.065766	           -0.113337
            3.763000	            0.687204	            0.541520	           -0.136956	           -0.233013	            0.005581	           -0.255695	            0.080771	            0.009409	            0.066738	            0.142502	           -0.551603	           -0.095887	           -0.232311	            0.006130	           -0.833667	           -0.093833	           -0.028630	           -0.018911
            3.763500	            0.641640	           -0.360014	           -0.094851	           -0.233013	            0.005581	           -0.255695	            0.004013	            0.056075	           -0.047583	            0.098249	           -1.287863	           -0.239280	           -0.232311	            0.006130	           -0.833667	           -0.150188	           -0.038017	           -0.094322
            3.764000	            0.274749	           -0.179623	           -0.139023	           -0.233013	            0.005581	           -0.255695	            0.099774	            0.018789	           -0.026029	            0.375361	           -0.181958	           -0.235457	           -0.232311	            0.006130	           -0.833667	           -0.187775	           -0.038018	           -0.132006
            3.764500	            0.274276	            0.542030	           -0.273499	           -0.233013	            0.005581	           -0.255695	            0.161233	           -0.091641	           -0.139469	            0.050070	           -0.919736	           -0.237946	           -0.232311	            0.006130	           -0.833667	           -0.094105	            0.037808	           -0.094076
